<svg id="Layer_1" data-name="Layer 1" xmlns="http://www.w3.org/2000/svg" viewBox="0 0 268.23 62.99"><title>artinfo_logo-kolor</title><path d="M70.52,80.9h-9a12.74,12.74,0,0,1-.9-3q-3.37,3.72-10.76,3.73a14.25,14.25,0,0,1-8.42-2.35,9.21,9.21,0,0,1-3.86-8c0-5,2-8.46,5.9-10.35q2.7-1.3,11-2.35c3.94-.5,5.9-1.56,5.9-3.17A4,4,0,0,0,58.6,52a6.86,6.86,0,0,0-4.13-1.27,6.71,6.71,0,0,0-4.16,1.31,5.56,5.56,0,0,0-2.23,4.07h-9.3a15.61,15.61,0,0,1,2.1-7.24,11.27,11.27,0,0,1,5.7-4.28,23.25,23.25,0,0,1,8.27-1.38q15.66.14,15.67,15ZM60.24,63a12.05,12.05,0,0,1-5.11,1.86,21.44,21.44,0,0,0-5.38,1.45,4.69,4.69,0,0,0-2.55,4.55c0,2.76,1.44,4.14,4.34,4.14A10.31,10.31,0,0,0,55.68,74a8.62,8.62,0,0,0,3.24-2.24,8.28,8.28,0,0,0,1.45-5.31c0-.42,0-1-.07-1.8S60.24,63.33,60.24,63Z" transform="translate(-37.54 -30.74)" style="fill:#bf311a"/><path d="M95.56,53.16a17.87,17.87,0,0,0-2.69-.2Q84,53,84,61.79V80.9H74.24V44.12h9.18V47a6.6,6.6,0,0,0,.07,1.59,1,1,0,0,1,.2-.14A20.78,20.78,0,0,1,88,44.68a12.57,12.57,0,0,1,6.28-1.38h1.31Z" transform="translate(-37.54 -30.74)" style="fill:#bf311a"/><path d="M128,62.2a47.54,47.54,0,0,1-.55,8.35A14.65,14.65,0,0,1,124.19,78q-3.93,4.27-11,4.28a17,17,0,0,1-8-1.87,12,12,0,0,1-5.59-5.72,18.85,18.85,0,0,1-1.45-7.52V34.26h9.66v9.86H128v7H107.77V66.2a16.94,16.94,0,0,0,.41,4.28q1,3.31,5.11,3.31A4.77,4.77,0,0,0,117,72.34C118.3,71,119,68,119,63.44V56.75h9Z" transform="translate(-37.54 -30.74)" style="fill:#bf311a"/><path d="M140.75,39.78H131v-9h9.73Zm0,41.12H131V44.12h9.73Z" transform="translate(-37.54 -30.74)" style="fill:#e7ac93"/><path d="M178.28,80.9h-9.73V58.68q0-3.85-1.17-5.45c-1-1.24-2.69-1.86-5.18-1.86q-7.51,0-7.52,8.48V80.9H145V44.12h9.38v3.45a10.52,10.52,0,0,0,.07,2s0-.07.07-.07a11.85,11.85,0,0,1,4.91-4.73,14.31,14.31,0,0,1,6.78-1.69q7.29,0,10.59,5.73a13.55,13.55,0,0,1,1.52,6.62Z" transform="translate(-37.54 -30.74)" style="fill:#e7ac93"/><path d="M201.32,51.09H195V80.9h-9.59V51.09h-5.38v-7h5.38q0-13.38,15.6-13.38v7.87q-3.66,0-4.83,1.17c-.79.78-1.18,2.23-1.18,4.34h6.28Z" transform="translate(-37.54 -30.74)" style="fill:#e7ac93"/><path d="M240,62.51q0,8.75-5,14t-13.66,5.26q-8.76,0-13.83-5.33t-5.08-13.95q0-8.67,5-14t13.87-5.34q8.83,0,13.87,5.44Q240,53.91,240,62.51Zm-9.86,0q0-11.19-8.83-11.18t-8.9,11.18q0,11.17,8.9,11.17T230.16,62.55Z" transform="translate(-37.54 -30.74)" style="fill:#e7ac93"/><path d="M253.48,80.76H243.06V70.69h10.42Z" transform="translate(-37.54 -30.74)" style="fill:#e7ac93"/><path d="M293.29,62.79q0,7.84-3.54,13a13.46,13.46,0,0,1-11.65,6H278a12.38,12.38,0,0,1-10.75-5.72V93.73h-9.66V44.12H267V47a8.54,8.54,0,0,0,.07,1.73l.07-.07A11.22,11.22,0,0,1,277.35,43a14.76,14.76,0,0,1,8.59,2.76,15.29,15.29,0,0,1,5.66,7A27.08,27.08,0,0,1,293.29,62.79Zm-10,0q0-11.28-8.35-11.28-8.13,0-8.14,11.83a11.65,11.65,0,0,0,2.56,7.91A7.24,7.24,0,0,0,275,73.93a7.07,7.07,0,0,0,5.66-2.75C282.41,69.11,283.28,66.32,283.28,62.79Z" transform="translate(-37.54 -30.74)" style="fill:#e7ac93"/><path d="M305.77,80.9H296V31.29h9.73Z" transform="translate(-37.54 -30.74)" style="fill:#e7ac93"/></svg>