<?xml version="1.0" encoding="UTF-8"?>
<svg width="26px" height="16px" viewBox="0 0 26 16" version="1.1" xmlns="http://www.w3.org/2000/svg" xmlns:xlink="http://www.w3.org/1999/xlink">
    <!-- Generator: Sketch 53.2 (72643) - https://sketchapp.com -->
    <title>bbe</title>
    <desc>Created with Sketch.</desc>
    <g id="Naturaily-on-tour" stroke="none" stroke-width="1" fill="none" fill-rule="evenodd">
        <g id="0.0.1-Homepage-Long" transform="translate(-1412.000000, -57.000000)" fill="#0065ff">
            <g id="00-/-07-Top" transform="translate(-14.000000, -330.000000)">
                <g id="social" transform="translate(1175.000000, 384.000000)">
                    <g id="icon-/-social-/-bbe" transform="translate(251.000000, 3.000000)">
                        <path d="M10.69575,7.232 C11.23525,6.9648 11.643125,6.6672 11.922625,6.3456 C12.419875,5.7664 12.66525,4.9984 12.66525,4.0464 C12.66525,3.12 12.419875,2.328 11.929125,1.664 C11.110125,0.5824 9.724,0.0288 7.76425,-2.27373675e-13 L-1.59161573e-12,-2.27373675e-13 L-1.59161573e-12,15.6048 L7.239375,15.6048 C8.055125,15.6048 8.81075,15.536 9.5095,15.3952 C10.20825,15.2528 10.81275,14.992 11.324625,14.6112 C11.779625,14.28 12.159875,13.8688 12.462125,13.384 C12.939875,12.6512 13.17875,11.8208 13.17875,10.896 C13.17875,10 12.969125,9.2368 12.553125,8.6096 C12.13225,7.9824 11.51475,7.5232 10.69575,7.232 Z M3.202875,2.7104 L6.699875,2.7104 C7.4685,2.7104 8.10225,2.792 8.5995,2.9536 C9.17475,3.1888 9.462375,3.6672 9.462375,4.3968 C9.462375,5.0512 9.243,5.5088 8.809125,5.7664 C8.372,6.024 7.804875,6.1536 7.109375,6.1536 L3.202875,6.1536 L3.202875,2.7104 Z M8.73275,12.6224 C8.346,12.8064 7.801625,12.8976 7.1045,12.8976 L3.202875,12.8976 L3.202875,8.736 L7.158125,8.736 C7.847125,8.7408 8.383375,8.8304 8.766875,8.9984 C9.449375,9.3024 9.789,9.8592 9.789,10.6736 C9.789,11.6336 9.438,12.28 8.73275,12.6224 Z" id="Shape" fill-rule="nonzero"></path>
                        <rect id="Rectangle" fill-rule="evenodd" x="16.614" y="0.728" width="6.885125" height="1.9424"></rect>
                        <path d="M25.891125,8.3936 C25.748125,7.4896 25.432875,6.6944 24.942125,6.008 C24.40425,5.2304 23.72175,4.6608 22.891375,4.3008 C22.06425,3.9392 21.133125,3.7584 20.096375,3.76 C18.356,3.76 16.94225,4.296 15.848625,5.36 C14.75825,6.4272 14.21225,7.9616 14.21225,9.9616 C14.21225,12.0944 14.815125,13.6352 16.027375,14.5808 C17.23475,15.528 18.629,16 20.21175,16 C22.127625,16 23.61775,15.4384 24.682125,14.3184 C25.363,13.6112 25.748125,12.9152 25.832625,12.232 L22.660625,12.232 C22.477,12.5696 22.264125,12.8336 22.020375,13.0256 C21.578375,13.3776 21.003125,13.5536 20.297875,13.5536 C19.62675,13.5536 19.058,13.408 18.5835,13.1184 C17.80025,12.6544 17.39075,11.8416 17.33875,10.6848 L25.995125,10.6848 C26.008125,9.688 25.975625,8.9216 25.891125,8.3936 Z M17.41675,8.6928 C17.5305,7.9424 17.80675,7.3472 18.2455,6.9072 C18.68425,6.4688 19.305,6.248 20.099625,6.2464 C20.8325,6.2464 21.445125,6.4528 21.944,6.8672 C22.436375,7.2848 22.71425,7.8912 22.771125,8.6928 L17.41675,8.6928 Z" id="Shape" fill-rule="nonzero"></path>
                    </g>
                </g>
            </g>
        </g>
    </g>
</svg>
