<?xml version="1.0" encoding="UTF-8"?>
<svg width="22px" height="22px" viewBox="0 0 22 22" version="1.1" xmlns="http://www.w3.org/2000/svg" xmlns:xlink="http://www.w3.org/1999/xlink">
    <!-- Generator: Sketch 53.2 (72643) - https://sketchapp.com -->
    <title>dribbble</title>
    <desc>Created with Sketch.</desc>
    <g id="Naturaily-on-tour" stroke="none" stroke-width="1" fill="none" fill-rule="evenodd">
        <g id="0.0.1-Homepage-Long" transform="translate(-1358.000000, -54.000000)" fill="#ea4c89" fill-rule="nonzero">
            <g id="00-/-07-Top" transform="translate(-14.000000, -330.000000)">
                <g id="social" transform="translate(1175.000000, 384.000000)">
                    <g id="icon-/-social-/-dribbble" transform="translate(197.000000, 0.000000)">
                        <path d="M11,0 C4.93453125,0 0,4.93453125 0,11 C0,17.0654687 4.93453125,22 11,22 C17.0654687,22 22,17.0654687 22,11 C22,4.93453125 17.0654687,0 11,0 Z M20.625,11.001375 C17.9540625,10.3052813 15.6230937,10.2770937 13.6118125,10.659 C13.3179063,9.98215625 13.01575,9.32903125 12.7094687,8.7065 C14.8204375,7.85778125 16.8196875,6.60825 18.3600312,4.8090625 C19.771125,6.48415625 20.625,8.64359375 20.625,11 C20.625,11.0006875 20.625,11.0006875 20.625,11.001375 Z M17.4016562,3.832125 C15.9915937,5.5158125 14.089625,6.6694375 12.0735312,7.45834375 C10.659,4.7774375 9.2778125,2.76065625 8.5133125,1.7125625 C9.3080625,1.49909375 10.13925,1.375 11,1.375 C13.4591875,1.375 15.698375,2.30965625 17.4016563,3.832125 L17.4016562,3.832125 Z M7.14896875,2.18521875 C7.7694375,3.01984375 9.229,5.07959375 10.745625,7.924125 C6.989125,9.09425 3.14359375,9.1568125 1.56234375,9.1210625 C2.1814375,6.00634375 4.30890625,3.430625 7.14896875,2.18521875 Z M1.375,11 C1.375,10.8301875 1.39253125,10.6648437 1.4004375,10.4970937 C1.6575625,10.5056875 1.9751875,10.5125625 2.3485,10.5125625 C4.357375,10.5125625 7.90625,10.31525 11.3915312,9.18121875 C11.6789062,9.76078125 11.9635312,10.3654375 12.2423125,10.9938125 C7.62059375,12.3842812 4.9445,15.895 3.92734375,17.5047813 C2.3485,15.7898125 1.375,13.5090312 1.375,11 Z M4.93590625,18.4652187 C5.68803125,17.1565625 8.14240625,13.5210625 12.7689375,12.233375 C13.7029062,14.531 14.5038437,17.0847187 14.950375,19.7676875 C13.743125,20.3135625 12.4086875,20.625 11,20.625 C8.702375,20.625 6.593125,19.8134062 4.93590625,18.4652187 L4.93590625,18.4652187 Z M16.2280937,19.0702188 C15.7667812,16.5271562 15.015,14.1181563 14.146,11.9367187 C15.9709687,11.6472812 18.0857187,11.7290937 20.51225,12.3952812 C20.103875,15.18825 18.49925,17.5938125 16.2280937,19.0702188 Z" id="Shape"></path>
                    </g>
                </g>
            </g>
        </g>
    </g>
</svg>
