<?xml version="1.0" encoding="UTF-8"?>
<svg width="11px" height="21px" viewBox="0 0 11 21" version="1.1" xmlns="http://www.w3.org/2000/svg" xmlns:xlink="http://www.w3.org/1999/xlink">
    <!-- Generator: Sketch 53.2 (72643) - https://sketchapp.com -->
    <title> facebook</title>
    <desc>Created with Sketch.</desc>
    <g id="Naturaily-on-tour" stroke="none" stroke-width="1" fill="none" fill-rule="evenodd">
        <g id="0.0.1-Homepage-Long" transform="translate(-1213.000000, -55.000000)" fill="#3b5998">
            <g id="00-/-07-Top" transform="translate(-14.000000, -330.000000)">
                <g id="social" transform="translate(1175.000000, 384.000000)">
                    <g id="icon-/-social-/-facebook" transform="translate(52.000000, 1.000000)">
                        <path d="M10.5794615,0.00432989691 L7.94263462,-1.98951966e-13 C4.98025,-1.98951966e-13 3.06582692,2.01015464 3.06582692,5.12140206 L3.06582692,7.48271134 L0.414615385,7.48271134 C0.185519231,7.48271134 -1.34292577e-12,7.67279381 -1.34292577e-12,7.90725773 L-1.34292577e-12,11.3285258 C-1.34292577e-12,11.5629897 0.185730769,11.7528557 0.414615385,11.7528557 L3.06582692,11.7528557 L3.06582692,20.3858041 C3.06582692,20.620268 3.25134615,20.810134 3.48044231,20.810134 L6.93951923,20.810134 C7.16861538,20.810134 7.35413462,20.6200515 7.35413462,20.3858041 L7.35413462,11.7528557 L10.4540192,11.7528557 C10.6831154,11.7528557 10.8686346,11.5629897 10.8686346,11.3285258 L10.8699038,7.90725773 C10.8699038,7.79468041 10.8261154,7.68686598 10.7484808,7.60719588 C10.6708462,7.52752577 10.5650769,7.48271134 10.4550769,7.48271134 L7.35413462,7.48271134 L7.35413462,5.481 C7.35413462,4.51889691 7.57815385,4.03048454 8.80275,4.03048454 L10.5790385,4.02983505 C10.8079231,4.02983505 10.9934423,3.83975258 10.9934423,3.60550515 L10.9934423,0.428659794 C10.9934423,0.194628866 10.8081346,0.0047628866 10.5794615,0.00432989691 Z" id="Path"></path>
                    </g>
                </g>
            </g>
        </g>
    </g>
</svg>
