<?xml version="1.0" encoding="UTF-8"?>
<svg width="11px" height="23px" viewBox="0 0 11 23" version="1.1" xmlns="http://www.w3.org/2000/svg" xmlns:xlink="http://www.w3.org/1999/xlink">
    <!-- Generator: Sketch 47.1 (45422) - http://www.bohemiancoding.com/sketch -->
    <title>Shape</title>
    <desc>Created with Sketch.</desc>
    <defs></defs>
    <g id="Symbols" stroke="none" stroke-width="1" fill="none" fill-rule="evenodd">
        <g id="footer" transform="translate(-1564.000000, -1021.000000)" fill-rule="nonzero" fill="#DADADA">
            <g id="Group-24" transform="translate(1564.000000, 1021.000000)">
                <path d="M6.99770429,7.82726754 L6.99770429,5.99098058 C6.99770429,5.71531785 7.01065191,5.50179927 7.03696332,5.35096837 C7.06318226,5.199911 7.12283379,5.05134482 7.21540928,4.90468102 C7.30784605,4.75810781 7.45752979,4.65691975 7.66422931,4.60084508 C7.87120627,4.54467982 8.14625073,4.51668778 8.48964013,4.51668778 L10.3642244,4.51668778 L10.3642244,0.84420444 L7.36735886,0.84420444 C5.63330251,0.84420444 4.38788012,1.24719019 3.63090672,2.05316168 C2.8740258,2.85931435 2.49563159,4.04675667 2.49563159,5.61594158 L2.49563159,7.82722225 L0.250976562,7.82722225 L0.250976562,11.4999774 L2.49549286,11.4999774 L2.49549286,22.1557956 L6.99765805,22.1557956 L6.99765805,11.5000226 L9.99433863,11.5000226 L10.3904433,7.82726754 L6.99770429,7.82726754 Z" id="Shape"></path>
            </g>
        </g>
    </g>
</svg>