<?xml version="1.0" encoding="UTF-8"?>
<svg width="19px" height="19px" viewBox="0 0 19 19" version="1.1" xmlns="http://www.w3.org/2000/svg" xmlns:xlink="http://www.w3.org/1999/xlink">
    <!-- Generator: Sketch 53.2 (72643) - https://sketchapp.com -->
    <title>github</title>
    <desc>Created with Sketch.</desc>
    <g id="Naturaily-on-tour" stroke="none" stroke-width="1" fill="none" fill-rule="evenodd">
        <g id="0.0.1-Homepage-Long" transform="translate(-1307.000000, -56.000000)" fill="#333">
            <g id="00-/-07-Top" transform="translate(-14.000000, -330.000000)">
                <g id="social" transform="translate(1175.000000, 384.000000)">
                    <g id="icon-/-social-/-github" transform="translate(146.000000, 2.000000)">
                        <path d="M17.7073075,4.84801869 C16.8586697,3.35660748 15.7075467,2.17585514 14.2536355,1.30549533 C12.799508,0.435091121 11.2120342,-2.84217094e-14 9.49008884,-2.84217094e-14 C7.76835991,-2.84217094e-14 6.18036674,0.435224299 4.72654214,1.30549533 C3.27250114,2.17581075 2.12142141,3.35660748 1.2727836,4.84801869 C0.424275626,6.33938551 1.10844667e-12,7.96796963 1.10844667e-12,9.73372664 C1.10844667e-12,11.8548014 0.60332574,13.7621262 1.81028018,15.4561893 C3.01710478,17.1503855 4.57614351,18.3227033 6.48726651,18.9732757 C6.70972665,19.0156262 6.87440774,18.9858388 6.98148292,18.8846682 C7.08860137,18.7833645 7.14209567,18.6564907 7.14209567,18.5045794 C7.14209567,18.4792313 7.13997494,18.2511869 7.13586333,17.8201799 C7.13162187,17.3891729 7.12963098,17.0131682 7.12963098,16.6923435 L6.84541002,16.7427734 C6.6641959,16.7768224 6.43558998,16.79125 6.15959226,16.7871659 C5.88372437,16.783215 5.59733941,16.7535607 5.30082688,16.6984252 C5.00418451,16.643778 4.72827335,16.5170374 4.47287699,16.3184696 C4.21761048,16.1199019 4.03639636,15.8599836 3.9292779,15.5391145 L3.80571298,15.2474556 C3.7233508,15.0532827 3.59368337,14.8375794 3.41653759,14.6011449 C3.2393918,14.3644883 3.06025513,14.2040537 2.879041,14.1195748 L2.79252392,14.0560491 C2.73487472,14.0138318 2.68138041,13.9629136 2.63191116,13.9038271 C2.58248519,13.8447407 2.54548064,13.7856098 2.52076765,13.7263902 C2.49601139,13.6671262 2.5165262,13.6185164 2.58252847,13.5803832 C2.64853075,13.54225 2.76781093,13.5237383 2.94088838,13.5237383 L3.18793166,13.5616051 C3.35269932,13.5954766 3.55650569,13.6966472 3.79961048,13.8657383 C4.04258542,14.0346963 4.24232346,14.2543505 4.39886788,14.5246121 C4.58843508,14.8711402 4.8168246,15.1351869 5.08468565,15.3168855 C5.3523303,15.4985841 5.62218223,15.589278 5.89398178,15.589278 C6.16578132,15.589278 6.40053303,15.5681472 6.59832346,15.5261075 C6.79589749,15.4838458 6.98126651,15.4203201 7.15434396,15.3358855 C7.22848292,14.7695257 7.43034169,14.3344346 7.75974715,14.0303014 C7.29024374,13.9796939 6.86813212,13.903472 6.4931959,13.8021238 C6.11847608,13.7006425 5.73124829,13.5359463 5.33177221,13.3075911 C4.93207973,13.0795467 4.60051025,12.7963668 4.33697722,12.4585397 C4.07340091,12.120535 3.85708656,11.6767874 3.68833713,11.1276963 C3.51950114,10.5783832 3.4350615,9.9447243 3.4350615,9.22654206 C3.4350615,8.20396028 3.76052847,7.33377804 4.41133257,6.61550701 C4.10646697,5.84671729 4.13524829,4.98488084 4.4977631,4.03008645 C4.7366697,3.95395327 5.09096128,4.01108645 5.56046469,4.20113084 C6.03005467,4.39126402 6.37387244,4.55414019 6.59226424,4.68918224 C6.81065604,4.82417991 6.98563781,4.93857944 7.11746925,5.03135981 C7.88374487,4.81175 8.67451708,4.7019229 9.49000228,4.7019229 C10.3054875,4.7019229 11.0964328,4.81175 11.8627517,5.03135981 L12.3322984,4.72731542 C12.6533941,4.52444159 13.0325718,4.3385257 13.4689226,4.16952336 C13.905533,4.00060981 14.2393964,3.95408645 14.4701663,4.03021963 C14.8407312,4.98505841 14.873754,5.84685047 14.5688018,6.61564019 C15.2195626,7.33391121 15.5451595,8.20431542 15.5451595,9.22667523 C15.5451595,9.94485748 15.4604169,10.580514 15.2918405,11.1340444 C15.1230478,11.6876636 14.9048724,12.1309673 14.6372278,12.4648879 C14.3692802,12.798764 14.03559,13.0797243 13.6361139,13.3077243 C13.2365513,13.5359019 12.8491936,13.7005981 12.4744738,13.8020794 C12.0995809,13.9035607 11.6774692,13.9798271 11.2079658,14.0305234 C11.63618,14.4106121 11.8503303,15.0105771 11.8503303,15.8301519 L11.8503303,18.5042243 C11.8503303,18.6561355 11.9018337,18.782965 12.0049271,18.8843131 C12.1078907,18.9854836 12.2704943,19.015271 12.4929544,18.9728762 C14.4043371,18.3223925 15.9633759,17.1500304 17.1701572,15.4558341 C18.3768087,13.761771 18.9803508,11.8544463 18.9803508,9.7333715 C18.979918,7.96783645 18.555426,6.33938551 17.7073075,4.84801869 Z" id="Path"></path>
                    </g>
                </g>
            </g>
        </g>
    </g>
</svg>
