<?xml version="1.0" encoding="UTF-8"?>
<svg width="20px" height="20px" viewBox="0 0 20 20" version="1.1" xmlns="http://www.w3.org/2000/svg" xmlns:xlink="http://www.w3.org/1999/xlink">
    <!-- Generator: Sketch 47.1 (45422) - http://www.bohemiancoding.com/sketch -->
    <title>Page 1</title>
    <desc>Created with Sketch.</desc>
    <defs></defs>
    <g id="Symbols" stroke="none" stroke-width="1" fill="none" fill-rule="evenodd">
        <g id="footer" transform="translate(-1691.000000, -1023.000000)" fill="#DADADA">
            <g id="Group-24" transform="translate(1564.000000, 1021.000000)">
                <path d="M146.574136,9.97518445 L137.513329,9.97518445 L137.513329,13.6203639 L142.690887,13.6203639 C142.467954,14.7982262 141.790075,15.7963653 140.771177,16.4644911 C139.909764,17.0299709 138.807746,17.3640603 137.513329,17.3640603 C135.007617,17.3640603 132.8867,15.7063713 132.130187,13.4790204 C131.937789,12.9135936 131.828511,12.3096811 131.828511,11.6885109 C131.828511,11.0674466 131.937789,10.4634812 132.130187,9.89805432 C132.8867,7.67070346 135.007617,6.01301446 137.513329,6.01301446 C138.925778,6.01301446 140.193983,6.48850027 141.191048,7.42226715 L143.950336,4.71943048 C142.284203,3.19884995 140.10654,2.26497718 137.513329,2.26497718 C133.752599,2.26497718 130.499128,4.37676519 128.916115,7.45657074 C128.264556,8.72871497 127.892839,10.1678774 127.892839,11.6885109 C127.892839,13.2091444 128.264556,14.6483598 128.916115,15.9206099 C130.499128,19.0003625 133.752599,21.1119917 137.513329,21.1119917 C140.110917,21.1119917 142.288635,20.2682188 143.880403,18.8289504 C145.699536,17.1884132 146.749023,14.7726044 146.749023,11.9026966 C146.749023,11.2344648 146.687845,10.5919608 146.574136,9.97518445" id="Page-1"></path>
            </g>
        </g>
    </g>
</svg>