<?xml version="1.0" encoding="utf-8"?>
<!-- Svg Vector Icons : http://www.onlinewebfonts.com/icon -->
<!DOCTYPE svg PUBLIC "-//W3C//DTD SVG 1.1//EN" "http://www.w3.org/Graphics/SVG/1.1/DTD/svg11.dtd">
<svg version="1.1" xmlns="http://www.w3.org/2000/svg" xmlns:xlink="http://www.w3.org/1999/xlink" x="0px" y="0px" viewBox="0 0 1000 1000" enable-background="new 0 0 1000 1000" xml:space="preserve">
<metadata> Svg Vector Icons : http://www.onlinewebfonts.com/icon </metadata>
<g><g fill="#DADADA" transform="translate(0.000000,613.000000) scale(0.100000,-0.100000)"><path d="M1064.6,5806.3c-478.1-75.1-822.9-367.8-937.8-796.8c-36.8-136.4-35.2-430.6,1.5-567C231,4061,519.1,3780.6,916,3673.3c162.4-42.9,494.9-47.5,665-7.7c441.3,102.7,755.4,399.9,847.4,799.9c56.7,243.6,19.9,537.9-95,772.3c-84.3,171.6-272.8,358.6-449,444.4c-72,35.2-182.3,78.1-245.2,95C1504.4,5812.5,1202.5,5827.8,1064.6,5806.3z"/><path d="M7239.9,2910.2c-648.2-56.7-1169.2-352.4-1540-870.4c-55.2-78.2-102.7-141-107.3-141c-4.6,0-7.7,194.6-7.7,432.1v433.6l-1049.6,4.6l-1049.6,3.1V-391.9v-3164.2l1049.6,3.1l1049.6,4.6l7.7,1938.4c9.2,2154.4,0,1982.8,116.4,2214.2c119.5,237.5,323.3,445.9,534.8,545.5c214.5,101.1,508.7,133.3,750.8,82.7c447.4-95,720.2-475,787.6-1092.5c10.7-105.7,16.9-737.1,16.9-1926.1v-1769.8h1049.6H9900l-6.1,2050.2c-4.6,2015-4.6,2051.8-36.8,2251c-142.5,865.8-488.8,1458.8-1071.1,1831.1c-205.3,131.8-539.4,254.4-819.8,301.9C7759.4,2913.3,7433,2928.6,7239.9,2910.2z"/><path d="M214.2-391.9v-3164.2h1049.6h1049.6v3164.2v3164.2H1263.8H214.2V-391.9z"/></g></g>
</svg>
