<?xml version="1.0" encoding="UTF-8"?>
<svg width="19px" height="19px" viewBox="0 0 19 19" version="1.1" xmlns="http://www.w3.org/2000/svg" xmlns:xlink="http://www.w3.org/1999/xlink">
    <!-- Generator: Sketch 53.2 (72643) - https://sketchapp.com -->
    <title>linkedin</title>
    <desc>Created with Sketch.</desc>
    <g id="Naturaily-on-tour" stroke="none" stroke-width="1" fill="none" fill-rule="evenodd">
        <g id="0.0.1-Homepage-Long" transform="translate(-1256.000000, -56.000000)" fill="#007bb5" fill-rule="nonzero">
            <g id="00-/-07-Top" transform="translate(-14.000000, -330.000000)">
                <g id="social" transform="translate(1175.000000, 384.000000)">
                    <g id="icon-/-social-/-li" transform="translate(95.000000, 2.000000)">
                        <path d="M18.9610742,11.6206675 L18.9610742,18.9539757 L14.8971021,18.9539757 L14.8971021,12.1118083 C14.8971021,10.393 14.3092923,9.21998058 12.8382691,9.21998058 C11.7153295,9.21998058 11.0470673,10.0105097 10.7530742,10.7752136 C10.6458631,11.0485922 10.6182668,11.4290995 10.6182668,11.8117743 L10.6182668,18.9539757 L6.55292807,18.9539757 C6.55292807,18.9539757 6.60767981,7.36558981 6.55292807,6.1649466 L10.6178701,6.1649466 L10.6178701,7.97774029 C10.6096265,7.99129854 10.5989142,8.00591748 10.5911555,8.01906068 L10.6178701,8.01906068 L10.6178701,7.97774029 C11.1579374,7.10756796 12.1224408,5.86449757 14.2812993,5.86449757 C16.9559791,5.86445146 18.9610742,7.69237136 18.9610742,11.6206675 Z M2.30041067,1.98951966e-13 C0.909663573,1.98951966e-13 -8.24229573e-13,0.954288835 -8.24229573e-13,2.20921117 C-8.24229573e-13,3.43678641 0.883345708,4.42003641 2.24645244,4.42003641 L2.27360789,4.42003641 C3.69129002,4.42003641 4.57296056,3.43697087 4.57296056,2.20921117 C4.54624594,0.954288835 3.69129002,1.98951966e-13 2.30041067,1.98951966e-13 Z M0.241445476,18.9539757 L4.3052413,18.9539757 L4.3052413,6.1649466 L0.241445476,6.1649466 L0.241445476,18.9539757 Z" id="LinkedIn"></path>
                    </g>
                </g>
            </g>
        </g>
    </g>
</svg>
