<?xml version="1.0" encoding="UTF-8"?>
<svg width="96px" height="32px" viewBox="0 0 96 32" version="1.1" xmlns="http://www.w3.org/2000/svg" xmlns:xlink="http://www.w3.org/1999/xlink">
    <!-- Generator: Sketch 48.2 (47327) - http://www.bohemiancoding.com/sketch -->
    <title>logo_copy</title>
    <desc>Created with Sketch.</desc>
    <defs></defs>
    <g id="Page-1" stroke="none" stroke-width="1" fill="none" fill-rule="evenodd">
        <path d="M77.549,7.507 C78.3413543,5.81123308 79.2342773,4.16430117 80.223,2.575 C79.4702917,1.59208318 78.577843,0.724565092 77.574,0 C76.528,0.723 75.337,3.778 75.337,5.51 C75.7423976,6.47026512 76.5524246,7.20155984 77.549,7.507 Z M93.278,9.528 C91.578,13.571 89.437,19.345 86.348,23.387 C86.616,22.04 87.76,15.665 90.604,10.563 C89.7147368,10.0536368 88.7767294,9.63454849 87.804,9.312 C86.2765941,11.8862213 85.0760061,14.6407881 84.23,17.512 C83.092,18.624 80,21.7 78.254,23 C78.4635101,21.4544547 78.8479767,19.9377238 79.4,18.479 C81.028,16.361 85.89,10.323 87.665,6.688 C88.686,4.595 86.912,2.309 84.043,1.731 C81.781,3.801 78.086,11.116 75.778,18.19 C74.197,19.97 71.937,22.328 71.937,22.328 C73.1399168,18.3255876 74.5756976,14.3968909 76.237,10.562 C75.0713769,9.98537089 73.838108,9.55703587 72.566,9.287 C71.715,11.164 70.816,13.546 69.6,16.746 C69.6,16.746 67.243,20.522 65.541,22.809 C66.5508031,18.5180233 67.933388,14.3234239 69.673,10.273 C68.6513124,9.79227341 67.5848537,9.41311787 66.489,9.141 C66.489,9.141 66.027,9.841 65.489,10.779 C64.5448956,10.0622556 63.4597863,9.55344017 62.305,9.286 C61.6126195,9.45225792 60.9876611,9.82632568 60.514,10.358 C60.0929738,10.0363665 59.651733,9.74209464 59.193,9.477 C57.2893514,10.6754848 55.6777144,12.2843885 54.476,14.186 C54.8754444,12.9676744 55.3634112,11.780177 55.936,10.633 C54.8811878,10.0561947 53.7282123,9.68079947 52.536,9.526 C52.5267778,9.53693209 52.5190439,9.54903732 52.513,9.562 C51.992,10.362 45.002,21.262 43.857,23.262 C45.2384077,18.8937848 46.8783009,14.6115631 48.768,10.438 C47.917,10.029 46.701,9.524 45.753,9.187 C45.341,10.078 43.225,14.866 41.645,18.33 C40.645,20.518 39.262,23.141 38.679,23.141 C37.463,23.141 38.679,17.441 41.839,10.198 C40.7578824,9.79624095 39.6436138,9.49006806 38.509,9.283 C37.4455991,11.5301007 36.5107587,13.8358179 35.709,16.189 C34.688,17.727 31.26,23.43 31.26,23.43 C32.4752149,18.1271253 34.0932438,12.9246942 36.1,7.868 L43.879,8.18 L43.879,6.328 L36.757,6.228 L38.58,2.548 C37.632,1.97 35.468,0.766 35.225,1.465 L33.256,6.28 L24.942,6.327 L25.38,7.675 L32.7,7.868 L30.147,14.293 C29.004,16.674 25.747,22.545 25.139,23.363 C25.869,20.139 26.963,13.884 28.98,10.636 C27.9917712,9.93653372 26.864016,9.45896044 25.674,9.236 C25.674,9.236 25.455,9.693 24.969,10.68 C23.7734629,9.59958864 22.1690476,9.08909286 20.569,9.28 C18.843,9.665 15.999,15.223 15.369,17.221 L11.742,23.29 C12.228,19.055 14.829,12.536 15.048,11.934 C14.2145189,11.2107915 13.2812843,10.611312 12.277,10.154 C11.037,10.659 6.248,17.204 5.519,18.503 C6.23452399,15.7108253 7.29607782,13.0189801 8.679,10.49 C7.76250383,9.86342773 6.78524033,9.33074039 5.762,8.9 C3.04,12.295 0.852,20.4 0,24.156 C1.0322055,24.8806766 2.16172711,25.4557058 3.355,25.864 C4.84943909,22.0008901 6.94162172,18.3965993 9.555,15.183 C8.631,18.262 7.537,23.556 8.266,24.035 C9.29214536,24.6101979 10.4110134,25.0014294 11.572,25.191 C13.152,22.712 14.829,20.018 15.145,19.44 C13.516,24.684 17.114,26.105 19.132,24.64 C20.348,23.751 22.293,20.575 22.293,20.575 C22.293,20.575 21.293,23.775 21.807,24.688 C21.807,24.688 22.171,25.05 25.307,25.195 L29.148,18.386 C29.148,18.386 27.325,24.401 28.103,24.786 C29.1354067,25.0079383 30.1842367,25.1450621 31.239,25.196 C31.968,24.233 34.205,20.36 35.007,19.06 C34.326,21.51 33.5,25.5 37.243,25.071 C39.143,24.878 40.889,21.943 41.983,19.754 C41.108,22.279 40.647,24.012 40.841,24.612 C41.829117,24.8162786 42.8271081,24.9694819 43.831,25.071 C44.963,23.305 48.492,17.659 50.897,13.805 C49.366,18.105 47.374,24.137 47.721,24.543 C48.7159055,24.8205218 49.7325448,25.0132116 50.76,25.119 C51.325,23.313 52.079,21.034 52.84,18.819 C54.2634344,16.3853384 56.2556688,14.3330555 58.646,12.838 C57.3198491,15.0518869 56.3949872,17.4825271 55.914,20.018 C55.501,22.689 55.598,24.108 57.275,24.853 C58.0420385,25.2010534 58.9301614,25.1559578 59.658,24.732 C60.873,23.842 62.818,20.426 62.818,20.426 C62.259,22.226 61.772,24.612 62.283,24.781 C63.0896007,25.0262726 63.9091948,25.2265808 64.738,25.381 C67.144,22.3 68.992,19.3 68.992,19.3 C68.652,20.526 67.558,24.3 67.992,24.5 L71.177,25.125 L75.284,20.458 C74.848,22.094 74.36,24.619 74.994,24.764 C75.066,24.788 76.208,24.981 77.156,25.222 C79.555548,23.4110048 81.8235761,21.4320358 83.943,19.3 C83.359,22.621 82.897,24.953 83.263,25 C84.2113386,25.1602659 85.1703616,25.2491819 86.132,25.266 C87.126,24.014 90.166,19.829 90.166,19.829 C90.066,20.021 87.712,25.146 85.499,29.668 C85.111,30.463 86.52,31.425 87.399,32.002 C91.186,25.961 94.93,13.571 96,10.756 C95.537,10.563 93.763,9.745 93.278,9.528 Z M86.078,3.921 C86.778,4.114 87.267,5.321 86.612,6.664 C84.7559493,10.1569762 82.4957774,13.4196925 79.878,16.385 C81.2968122,11.9376669 83.3891215,7.73416219 86.082,3.921 L86.078,3.921 Z M19.156,23.435 C16.361,25.046 19.521,14.389 21.976,12.151 C22.535,11.621 23.483,11.982 24.286,12.512 C23.678,14 22,20.476 19.156,23.435 Z M65.005,12.945 C64.372,14.437 62.768,20.187 59.924,23.145 C56.691,25.456 61.018,14.437 63.473,12.198 C64.032,11.67 65.272,12.271 65.005,12.946 L65.005,12.945 Z" id="logo_copy" fill="#FF5E45"></path>
    </g>
</svg>