<?xml version="1.0" encoding="UTF-8"?>
<svg width="20px" height="16px" viewBox="0 0 20 16" version="1.1" xmlns="http://www.w3.org/2000/svg" xmlns:xlink="http://www.w3.org/1999/xlink">
    <!-- Generator: Sketch 53.2 (72643) - https://sketchapp.com -->
    <title>icon / social / twitter</title>
    <desc>Created with Sketch.</desc>
    <g id="Naturaily-on-tour" stroke="none" stroke-width="1" fill="none" fill-rule="evenodd">
        <g id="0.0.1-Homepage-Long" transform="translate(-1161.000000, -57.000000)" fill="#1da1f2">
            <g id="00-/-07-Top" transform="translate(-14.000000, -330.000000)">
                <g id="social" transform="translate(1175.000000, 384.000000)">
                    <g id="icon-/-social-/-twitter" transform="translate(0.000000, 3.000000)">
                        <path d="M19.9999673,1.88970281 C19.2638562,2.21037751 18.4740196,2.42785542 17.6441503,2.52494779 C18.4915033,2.02608835 19.1401307,1.23482731 19.447549,0.294875502 C18.6527124,0.756851406 17.7753595,1.09230522 16.8405229,1.27415261 C16.0919281,0.489028112 15.0271242,2.84217094e-13 13.8460784,2.84217094e-13 C11.5802614,2.84217094e-13 9.74310458,1.80616867 9.74310458,4.03254618 C9.74310458,4.34830522 9.77934641,4.65670683 9.84934641,4.95161446 C6.44,4.78326104 3.41683007,3.17738153 1.39346405,0.737188755 C1.03977124,1.33188755 0.838562092,2.02483534 0.838562092,2.76453012 C0.838562092,4.16401606 1.56343137,5.39884337 2.66323529,6.12128514 C1.99084967,6.09918072 1.35846405,5.91733333 0.804836601,5.61506827 L0.804836601,5.66544578 C0.804836601,7.61905221 2.21957516,9.24951004 4.09545752,9.62059438 C3.75176471,9.71151807 3.38934641,9.76189558 3.01441176,9.76189558 C2.74947712,9.76189558 2.49326797,9.73609639 2.24205882,9.68693976 C2.76444444,11.2903775 4.27918301,12.4563855 6.07385621,12.4883534 C4.67035948,13.5696064 2.90068627,14.2122088 0.978562092,14.2122088 C0.647385621,14.2122088 0.321176471,14.1925462 -1.93267624e-12,14.1569157 C1.81591503,15.3032932 3.97176471,15.9716948 6.28882353,15.9716948 C13.8361438,15.9716948 17.961634,9.8257992 17.961634,4.4957751 L17.9478758,3.97359036 C18.7539542,3.40835341 19.4513072,2.69818474 19.9999673,1.88970281 Z" id="Path"></path>
                    </g>
                </g>
            </g>
        </g>
    </g>
</svg>
