<?xml version="1.0" encoding="UTF-8"?>
<svg width="24px" height="19px" viewBox="0 0 24 19" version="1.1" xmlns="http://www.w3.org/2000/svg" xmlns:xlink="http://www.w3.org/1999/xlink">
    <!-- Generator: Sketch 47.1 (45422) - http://www.bohemiancoding.com/sketch -->
    <title>twitter</title>
    <desc>Created with Sketch.</desc>
    <defs></defs>
    <g id="Symbols" stroke="none" stroke-width="1" fill="none" fill-rule="evenodd">
        <g id="footer" transform="translate(-1622.000000, -1024.000000)" fill="#DADADA">
            <g id="Group-24" transform="translate(1564.000000, 1021.000000)">
                <path d="M81.2544663,5.15092181 C80.3932464,5.52831457 79.486699,5.78360967 78.5121607,5.89460754 C79.5093627,5.31741862 80.2572643,4.39613629 80.6085513,3.30835716 C79.702004,3.84114694 78.6708064,4.22963949 77.6056133,4.44053544 C76.7103979,3.55255248 75.4752271,2.97536355 74.1040743,2.97536355 C71.4750871,2.97536355 69.3560327,5.05102373 69.3560327,7.62617432 C69.3560327,7.99246729 69.3786964,8.36986005 69.4580193,8.70285367 C65.5145385,8.49195771 62.0243313,6.73819136 59.6559764,3.91884545 C59.259362,4.60703225 59.0100614,5.31741862 59.0100614,6.18320201 C59.0100614,7.78157134 59.8486177,9.20234408 61.1404476,10.0459279 C60.3585506,10.0237283 59.6333127,9.81283237 58.9873978,9.46873897 L58.9873978,9.52423791 C58.9873978,11.7885945 60.6305148,13.6755583 62.8062283,14.0973502 C62.3982821,14.208348 61.9676721,14.263847 61.5370621,14.263847 C61.2424342,14.263847 60.9478063,14.2305476 60.6531785,14.1750487 C61.2424342,16.0176133 63.0215333,17.3939869 65.0839285,17.4161865 C63.474807,18.6815622 61.40108,19.6250441 59.1800391,19.6250441 C58.7947565,19.6250441 58.4208057,19.6028445 58.0468549,19.5473456 C60.1432456,20.8682203 62.6702462,21.4454092 65.3558927,21.4454092 C74.1040743,21.4454092 78.8861114,14.3415455 78.8861114,8.18116367 L78.8861114,7.57067539 C79.8039906,6.91578795 80.6085513,6.1055035 81.2544663,5.15092181 Z" id="twitter"></path>
            </g>
        </g>
    </g>
</svg>